<svg viewBox="0 0 800 800" xmlns="http://www.w3.org/2000/svg"><path d="M443.168289354003,391.9710629882694 L414.56314422868843,408.431383491567 M414.0845464314692,291.6461538261253 L414.56314422868843,408.431383491567 M414.0845464314692,291.6461538261253 L442.74646711788535,275.2183793423209 M443.168289354003,391.9710629882694 L442.74646711788535,275.2183793423209 M613.8484254279736,491.0084725436753 L443.168289354003,391.9710629882694 M585.2427496106814,507.579202945145 L613.8484254279736,491.0084725436753 M585.2427496106814,507.579202945145 L570.975795059243,499.2915259795662 M570.975795059243,499.2915259795662 L542.3381954740685,515.8715073127146 M542.3381954740685,515.8715073127146 L556.6051210697733,524.1684429589034 M527.9354862382354,540.7762236153148 L556.6051210697733,524.1684429589034 M357.2572645206649,441.4070297462936 L527.9354862382354,540.7762236153148 M385.9261536871476,424.910028871573 L357.2572645206649,441.4070297462936 M385.9261536871476,424.910028871573 L400.105844254083,433.1562329558049 M400.105844254083,433.1562329558049 L428.7429120380856,416.66841365995344 M428.7429120380856,416.66841365995344 L414.56314422868843,408.431383491567 M456.79221631965504,482.7300387694888 L464.43384624311886,486.210683021134 M464.43384624311886,486.210683021134 L473.29901839760413,488.527425558229 M473.29901839760413,488.527425558229 L482.8716567650748,489.54506242120607 M482.8716567650748,489.54506242120607 L492.5942093388357,489.20418708002893 M492.5942093388357,489.20418708002893 L501.90036270910116,487.52469210627083 M501.90036270910116,487.52469210627083 L510.248169967988,484.6046279935993 M510.248169967988,484.6046279935993 L517.1519114368541,480.61434968181305 M517.1519114368541,480.61434968181305 L522.210333407291,475.78653019850856 M522.210333407291,475.78653019850856 L525.1300922262116,470.40239347863263 M525.1300922262116,470.40239347863263 L525.7425466869706,464.7752921446187 M525.7425466869706,464.7752921446187 L524.0134109623076,459.23233057137276 M524.0134109623076,459.23233057137276 L520.044389040447,454.0953815069284 M520.044389040447,454.0953815069284 L514.0670067773565,449.66242308095525 M514.0670067773565,449.66242308095525 L506.42897209979856,446.1903447724244 M506.42897209979856,446.1903447724244 L497.57386099921115,443.88020582045533 M497.57386099921115,443.88020582045533 L488.01544461941705,442.86569738626474 M488.01544461941705,442.86569738626474 L478.30801686863936,443.2055093222619 M478.30801686863936,443.2055093222619 L469.0144262651507,444.87999264443437 M469.0144262651507,444.87999264443437 L460.6737417067584,447.792245011004 M460.6737417067584,447.792245011004 L453.7700511689086,451.7737010162037 M453.7700511689086,451.7737010162037 L448.7045966950343,456.59370875291813 M448.7045966950343,456.59370875291813 L445.77233298209035,461.97283383383046 M445.77233298209035,461.97283383383046 L445.1447659864336,467.59887175954725 M445.1447659864336,467.59887175954725 L446.8596436063116,473.14496176199174 M446.8596436063116,473.14496176199174 L450.81852822154053,478.28851441037773 M450.81852822154053,478.28851441037773 L456.79221631965504,482.7300387694888 M428.3415624819987,312.65542443280737 L423.4195740589147,305.8129213150399 M423.4195740589147,305.8129213150399 L418.66378601760886,298.8047501346538 M418.66378601760886,298.8047501346538 L414.0845464314692,291.6461538261253 M428.7429120380856,416.66841365995344 L428.3415624819987,312.65542443280737 M559.3529872128724,401.75187096964873 L570.8244471828035,395.13368723283077 M516.4322976319249,398.2254774981388 L531.449253526299,401.85936506559284 M531.449253526299,401.85936506559284 L545.8274472538378,403.0416543216075 M545.8274472538378,403.0416543216075 L559.3529872128724,401.75187096964873 M513.8760482082564,370.6131865074858 L519.4712622196477,374.49430977537696 M519.4712622196477,374.49430977537696 L523.24030033695,378.48736445831776 M523.24030033695,378.48736445831776 L524.9781772267194,381.69125967403915 M524.9781772267194,381.69125967403915 L525.6015999895728,384.47210273013724 M525.6015999895728,384.47210273013724 L525.2245674857654,387.99892081340124 M525.2245674857654,387.99892081340124 L523.393601037566,391.72535559579813 M523.393601037566,391.72535559579813 L520.4270548964369,395.0880010359618 M520.4270548964369,395.0880010359618 L516.4322976319249,398.2254774981388 M459.74541191410293,365.37307511923274 L467.50201708719146,362.85578610672707 M467.50201708719146,362.85578610672707 L476.4823570383445,361.71085863782145 M476.4823570383445,361.71085863782145 L486.20491391626706,362.02350175628146 M486.20491391626706,362.02350175628146 L495.3186882892662,363.54679833893505 M495.3186882892662,363.54679833893505 L501.18896243659617,365.1428750244335 M501.18896243659617,365.1428750244335 L506.9586395550895,367.2324986692343 M506.9586395550895,367.2324986692343 L510.5493253313216,368.8451377651661 M510.5493253313216,368.8451377651661 L513.8760482082564,370.6131865074858 M416.8703055551764,319.2367615716166 L430.3796048648502,336.16244999816473 M430.3796048648502,336.16244999816473 L444.7416865285288,351.6173370710379 M444.7416865285288,351.6173370710379 L459.74541191410293,365.37307511923274 M416.8703055551764,319.2367615716166 L428.3415624819987,312.65542443280737 M613.7634946909927,374.0605130415831 L600.335144454585,378.4295118121043 M600.335144454585,378.4295118121043 L585.646874144152,379.9004307166542 M585.646874144152,379.9004307166542 L569.9577222284023,378.4514307497594 M569.9577222284023,378.4514307497594 L553.5434852818582,374.111673632468 M553.5434852818582,374.111673632468 L536.6918766167141,366.9605033327094 M536.6918766167141,366.9605033327094 L519.6975329653524,357.125883060732 M519.6975329653524,357.125883060732 L502.8569342041003,344.7819653613986 M502.8569342041003,344.7819653613986 L486.46336176471834,330.1459508390825 M486.46336176471834,330.1459508390825 L470.80192211709516,313.47426681752273 M470.80192211709516,313.47426681752273 L456.14475342691037,295.05808266912504 M456.14475342691037,295.05808266912504 L442.74646711788535,275.2183793423209 M585.1010401561158,390.5986979550442 L613.7634946909927,374.0605130415831 M585.1010401561158,390.5986979550442 L580.5159693261027,392.46901468136537 M580.5159693261027,392.46901468136537 L575.7535866165065,393.9817161925826 M575.7535866165065,393.9817161925826 L570.8244471828035,395.13368723283077 M613.8484254279736,491.0084725436753 L613.7634946909927,374.0605130415831 M585.2427496106814,507.579202945145 L585.1010401561158,390.5986979550442 M570.975795059243,499.2915259795662 L570.8244471828035,395.13368723283077 M542.3381954740685,515.8715073127146 L542.1361726976113,411.68469923417507 M542.1361726976113,411.68469923417507 L553.6153327464049,405.06207312151 M553.6590282882419,430.1089079281165 L553.6153327464049,405.06207312151 M553.6590282882419,430.1089079281165 L559.3942459971419,426.79730900685365 M559.3942459971419,426.79730900685365 L559.3529872128724,401.75187096964873 M556.4065059449856,407.15539278422796 L556.6051210697733,524.1684429589034 M556.4065059449856,407.15539278422796 L551.8236461094634,409.02399999800355 M551.8236461094634,409.02399999800355 L547.063351466111,410.53480577654904 M547.063351466111,410.53480577654904 L542.1361726976113,411.68469923417507 M527.6798381709829,423.73062862161686 L556.4065059449856,407.15539278422796 M527.9354862382354,540.7762236153148 L527.6798381709829,423.73062862161686 M357.2572645206649,441.4070297462936 L356.6647363483156,324.5567079117761 M527.6798381709829,423.73062862161686 L514.269289091834,428.0836826317697 M514.269289091834,428.0836826317697 L499.5956806501239,429.5343896881282 M499.5956806501239,429.5343896881282 L483.9178001388676,428.06127743347145 M483.9178001388676,428.06127743347145 L467.511251402346,423.693940709304 M467.511251402346,423.693940709304 L450.663616408092,416.51221479113696 M450.663616408092,416.51221479113696 L433.66946403791667,406.644603348193 M433.66946403791667,406.644603348193 L416.82527084429444,394.26583877325896 M416.82527084429444,394.26583877325896 L400.42437952064216,379.59373075383996 M400.42437952064216,379.59373075383996 L384.7520214679816,362.88533446351306 M384.7520214679816,362.88533446351306 L370.08052145573055,344.4324552952019 M370.08052145573055,344.4324552952019 L356.6647363483156,324.5567079117761 M356.6647363483156,324.5567079117761 L385.3906540167692,308.092253123115 M385.9261536871476,424.910028871573 L385.3906540167692,308.092253123115 M400.105844254083,433.1562329558049 L399.6538226160915,329.11427362539484 M399.6538226160915,329.11427362539484 L394.72991052103197,322.2674826735614 M394.72991052103197,322.2674826735614 L389.9720701650965,315.2550584722389 M389.9720701650965,315.2550584722389 L385.3906540167692,308.092253123115 M416.97167156635976,344.2472801619753 L416.8703055551764,319.2367615716166 M416.97167156635976,344.2472801619753 L411.23656064322256,347.54044653007475 M411.23656064322256,347.54044653007475 L411.1327580101603,322.52853116448534 M399.6538226160915,329.11427362539484 L411.1327580101603,322.52853116448534 M456.79221631965504,482.7300387694888 L457.2371911184561,614.0825700289481 M457.2371911184561,614.0825700289481 L464.8618613723209,617.5708363677766 M464.8618613723209,617.5708363677766 L473.7073297427859,619.8926512128653 M473.7073297427859,619.8926512128653 L483.25866915176766,620.9125158489408 M483.25866915176766,620.9125158489408 L492.95957083884394,620.5708942933757 M492.95957083884394,620.5708942933757 L502.24498537901786,618.8877224615273 M502.24498537901786,618.8877224615273 L510.57417598781274,615.9612645476959 M510.57417598781274,615.9612645476959 L517.4625075582327,611.9622470105357 M517.4625075582327,611.9622470105357 L522.5096220366938,607.1238507784062 M522.5096220366938,607.1238507784062 L525.4228301763073,601.7279144014362 M525.4228301763073,601.7279144014362 L526.0338667741293,596.0884762814349 M526.0338667741293,596.0884762814349 L524.3085226262012,590.533357735178 M524.3085226262012,590.533357735178 L520.3482759653104,585.3851380515 M520.3482759653104,585.3851380515 L514.384138823835,580.9424503939083 M514.384138823835,580.9424503939083 L506.76304794657267,577.4627496814494 M506.76304794657267,577.4627496814494 L497.9275959986959,575.1475381772968 M497.9275959986959,575.1475381772968 L488.39041540860393,574.1308018543211 M488.39041540860393,574.1308018543211 L478.7045713095199,574.4713600440302 M478.7045713095199,574.4713600440302 L469.43166363756336,576.1495204096182 M469.43166363756336,576.1495204096182 L461.1095639729669,579.0681668662091 M461.1095639729669,579.0681668662091 L454.2212829944111,583.0583624230014 M454.2212829944111,583.0583624230014 L449.16716716817564,587.888947197383 M449.16716716817564,587.888947197383 L446.24150964770195,593.2798721206916 M446.24150964770195,593.2798721206916 L445.61542766812414,598.9182468717142 M445.61542766812414,598.9182468717142 L447.32657712055146,604.4764937314987 M447.32657712055146,604.4764937314987 L451.27673161390874,609.6313167549522 M451.27673161390874,609.6313167549522 L457.2371911184561,614.0825700289481 M459.75764832186974,369.04660449268533 L416.97167156635976,344.2472801619753 M459.74541191410293,365.37307511923274 L459.75764832186974,369.04660449268533 M513.8760482082564,370.6131865074858 L506.1088534220697,367.10430455366884 M506.1088534220697,367.10430455366884 L497.0952486108131,364.7914202298589 M497.0952486108131,364.7914202298589 L487.3731191428818,363.81220935533554 M487.3731191428818,363.81220935533554 L477.5223374577075,364.22494136702096 M477.5223374577075,364.22494136702096 L468.13041056168976,366.0050502276261 M468.13041056168976,366.0050502276261 L459.75764832186974,369.04660449268533 M516.4322976319249,398.2254774981388 L516.4410218262833,401.90104583750497 M516.4410218262833,401.90104583750497 L521.7372779614133,397.06801198823285 M521.7372779614133,397.06801198823285 L524.8482608787508,391.6416572062354 M524.8482608787508,391.6416572062354 L525.5891217167743,385.9468100571086 M525.5891217167743,385.9468100571086 L523.9169073461032,380.32400485551545 M523.9169073461032,380.32400485551545 L519.9328597336125,375.10908300434266 M519.9328597336125,375.10908300434266 L513.8760482082564,370.6131865074858 M559.3942459971419,426.79730900685365 L516.4410218262833,401.90104583750497 M454.00990183923864,368.67156858532536 L439.0056961387544,354.9136095635755 M439.0056961387544,354.9136095635755 L424.6429320283055,339.45647019725726 M424.6429320283055,339.45647019725726 L411.1327580101603,322.52853116448534 M456.52427717743046,403.6368302338308 L450.9311930684432,399.38828609690614 M450.9311930684432,399.38828609690614 L447.1677274213108,394.43263502130134 M447.1677274213108,394.43263502130134 L445.43587862794567,390.1762751389461 M445.43587862794567,390.1762751389461 L444.81832639966024,386.37261206571117 M444.81832639966024,386.37261206571117 L445.2028745905571,381.52350524238096 M445.2028745905571,381.52350524238096 L447.04099441536766,376.52807844099493 M447.04099441536766,376.52807844099493 L450.01249583260153,372.282701202361 M450.01249583260153,372.282701202361 L454.00990183923864,368.67156858532536 M510.69674502826564,401.53130700422264 L502.9361454036473,404.7618724180725 M502.9361454036473,404.7618724180725 L493.94811929964834,407.27425959734387 M493.94811929964834,407.27425959734387 L484.2155980499587,408.7140587705775 M484.2155980499587,408.7140587705775 L475.0926143666769,408.8020038509572 M475.0926143666769,408.8020038509572 L469.217187795844,408.0987080180047 M469.217187795844,408.0987080180047 L463.44366376683524,406.67501203842374 M463.44366376683524,406.67501203842374 L459.8514877736179,405.31920911996593 M459.8514877736179,405.31920911996593 L456.52427717743046,403.6368302338308 M553.6153327464049,405.06207312151 L540.0906877927887,406.35061195151286 M540.0906877927887,406.35061195151286 L525.7131980818147,405.16685772135486 M525.7131980818147,405.16685772135486 L510.69674502826564,401.53130700422264 M510.70582697692566,405.20708026679966 L553.6590282882419,430.1089079281165 M510.69674502826564,401.53130700422264 L510.70582697692566,405.20708026679966 M510.70582697692566,405.20708026679966 L502.3263466687579,408.2567072259391 M502.3263466687579,408.2567072259391 L492.9219247641447,410.0421234566991 M492.9219247641447,410.0421234566991 L483.05581409924946,410.4561474909276 M483.05581409924946,410.4561474909276 L473.31913215259175,409.47390895607134 M473.31913215259175,409.47390895607134 L464.29517893315517,407.154390404618 M464.29517893315517,407.154390404618 L456.52427717743046,403.6368302338308 M456.52427717743046,403.6368302338308 L450.47127323973166,399.1322555192228 M450.47127323973166,399.1322555192228 L446.4976509494171,393.9106994498058 M446.4976509494171,393.9106994498058 L444.84002415105084,388.2848665912703 M444.84002415105084,388.2848665912703 L445.5961989809638,382.59131145709955 M445.5961989809638,382.59131145709955 L448.7196153737471,377.1702640497341 M448.7196153737471,377.1702640497341 L454.022495993376,372.34530288282025 M411.23656064322256,347.54044653007475 L454.022495993376,372.34530288282025 M454.00990183923864,368.67156858532536 L454.022495993376,372.34530288282025" stroke="black"  stroke-width="4"  fill="red"/>
<path d="M570.975795059243,499.2915259795662 L542.3381954740685,515.8715073127146 M570.975795059243,499.2915259795662 L570.8244471828035,395.13368723283077 M559.3529872128724,401.75187096964873 L570.8244471828035,395.13368723283077 M559.3529872128724,401.75187096964873 L559.3071545684697,373.92994950980744 M559.3071545684697,373.92994950980744 L553.5667932058717,377.23859726534056 M553.6153327464049,405.06207312151 L553.5667932058717,377.23859726534056 M542.1361726976113,411.68469923417507 L553.6153327464049,405.06207312151 M542.3381954740685,515.8715073127146 L542.1361726976113,411.68469923417507 M542.3381954740685,515.8715073127146 L570.8800170149727,532.470013764671 M570.8800170149727,532.470013764671 L599.5176700775589,515.8715073127146 M599.5176700775589,515.8715073127146 L570.975795059243,499.2915259795662 M585.1010401561158,390.5986979550442 L580.5159693261027,392.46901468136537 M580.5159693261027,392.46901468136537 L575.7535866165065,393.9817161925826 M575.7535866165065,393.9817161925826 L570.8244471828035,395.13368723283077 M585.1010401561158,390.5986979550442 L585.0828516636709,375.5841808379865 M599.3896802071538,383.85811458799407 L585.0828516636709,375.5841808379865 M599.5176700775589,515.8715073127146 L599.3896802071538,383.85811458799407 M585.1010401561158,390.5986979550442 L613.7634946909927,374.0605130415831 M613.7634946909927,374.0605130415831 L607.4167367842203,376.54027184976417 M607.4167367842203,376.54027184976417 L600.7431192279375,378.3434667468147 M600.7431192279375,378.3434667468147 L593.7704838890771,379.4630752405775 M593.7704838890771,379.4630752405775 L553.6456538274804,402.61022994339015 M559.3529872128724,401.75187096964873 L557.4715237499918,402.0887882602672 M557.4715237499918,402.0887882602672 L555.5688843405626,402.3749308172556 M555.5688843405626,402.3749308172556 L553.6456538274804,402.61022994339015 M553.6456538274804,402.61022994339015 L553.6389235724986,398.751067800466 M553.6389235724986,398.751067800466 L541.7999384215151,399.3106318648631 M541.7999384215151,399.3106318648631 L529.3472997039437,398.001052154057 M529.3472997039437,398.001052154057 L516.4242602318901,394.83926074448726 M516.3155905100742,349.05589410424096 L516.4242602318901,394.83926074448726 M516.3155905100742,349.05589410424096 L559.3071545684697,373.92994950980744 M570.687817400939,400.4198800730317 L599.3896802071538,383.85811458799407 M585.0828516636709,375.5841808379865 L613.7525937941953,359.05019189612057 M556.3810135441952,392.13667970310104 L570.687817400939,400.4198800730317 M613.7525937941953,359.05019189612057 L442.6923264555308,260.23323374537534 M527.6470255080358,408.70771959186743 L556.3810135441952,392.13667970310104 M442.6923264555308,260.23323374537534 L414.02311857950565,276.65681237678575 M356.5886853855036,309.5589746475823 L527.6470255080358,408.70771959186743 M414.02311857950565,276.65681237678575 L399.81978929262596,268.44273437955445 M385.3219227449018,293.09871578212244 L356.5886853855036,309.5589746475823 M399.81978929262596,268.44273437955445 L371.118675593343,284.8754715664305 M371.118675593343,284.8754715664305 L385.3219227449018,293.09871578212244 M416.7577026067572,291.45369995274217 L459.5817206371893,316.23081659197584 M411.017448316476,294.7439151660475 L416.7577026067572,291.45369995274217 M453.8414248305311,319.5265638095444 L411.017448316476,294.7439151660475 M510.57525206843115,352.358977356574 L502.1882628999276,355.4058826095237 M502.1882628999276,355.4058826095237 L492.77541995220184,357.18970566717667 M492.77541995220184,357.18970566717667 L482.9004814025544,357.6033602845356 M482.9004814025544,357.6033602845356 L473.15509485097056,356.6219981781731 M473.15509485097056,356.6219981781731 L464.12308292307046,354.3045495101251 M464.12308292307046,354.3045495101251 L456.3452516950347,350.7901289465438 M456.3452516950347,350.7901289465438 L450.28686232088523,346.2895758923687 M450.28686232088523,346.2895758923687 L446.309719938704,341.0726831336839 M446.309719938704,341.0726831336839 L444.6506471674516,335.4518764830359 M444.6506471674516,335.4518764830359 L445.4075342835839,329.7634100064836 M445.4075342835839,329.7634100064836 L448.53377622674077,324.3472095198569 M448.53377622674077,324.3472095198569 L453.8414248305311,319.5265638095444 M553.5667932058717,377.23859726534056 L510.57525206843115,352.358977356574 M459.5817206371893,316.23081659197584 L467.9619796801218,313.1919840282735 M467.9619796801218,313.1919840282735 L477.36230524426514,311.41346833759997 M477.36230524426514,311.41346833759997 L487.2218873914584,311.00110574201153 M487.2218873914584,311.00110574201153 L496.9526954527853,311.97944018985186 M496.9526954527853,311.97944018985186 L505.97434049872095,314.2902546342266 M505.97434049872095,314.2902546342266 L513.7484581723234,317.7959969860349 M513.7484581723234,317.7959969860349 L519.810661989088,322.2878718276605 M519.810661989088,322.2878718276605 L523.7982483736652,327.4981303720808 M523.7982483736652,327.4981303720808 L525.4719348229364,333.11590936760354 M525.4719348229364,333.11590936760354 L524.7303890811917,338.80566785833634 M524.7303890811917,338.80566785833634 L521.6166028233126,344.22717571641056 M521.6166028233126,344.22717571641056 L516.3155905100742,349.05589410424096 M510.57525206843115,352.358977356574 L510.68837803729195,398.14490141431503 M547.9013017161158,402.0605469097363 L536.0630448186771,402.61899008968084 M536.0630448186771,402.61899008968084 L523.6109881606378,401.30812586988293 M523.6109881606378,401.30812586988293 L510.68837803729195,398.14490141431503 M547.9013017161158,402.0605469097363 L547.9084074630854,405.91992443831856 M553.6153327464049,405.06207312151 L551.7340090461187,405.3988260656816 M551.7340090461187,405.3988260656816 L549.831505683939,405.68479938564144 M549.831505683939,405.68479938564144 L547.9084074630854,405.91992443831856 M527.6798381709829,423.73062862161686 L556.4065059449856,407.15539278422796 M556.4065059449856,407.15539278422796 L551.8236461094634,409.02399999800355 M551.8236461094634,409.02399999800355 L547.063351466111,410.53480577654904 M547.063351466111,410.53480577654904 L542.1361726976113,411.68469923417507 M547.9084074630854,405.91992443831856 L507.71172816945386,429.10852742356974 M527.6798381709829,423.73062862161686 L521.3420970009249,426.2031992301675 M521.3420970009249,426.2031992301675 L514.6767909332262,427.99816114062344 M514.6767909332262,427.99816114062344 L507.71172816945386,429.10852742356974 M570.8800170149727,532.470013764671 L570.687817400939,400.4198800730317 M556.3810135441952,392.13667970310104 L556.4065059449856,407.15539278422796 M613.7634946909927,374.0605130415831 L613.7525937941953,359.05019189612057 M593.7704838890771,379.4630752405775 L593.7663773862074,375.60542080092773 M593.7663773862074,375.60542080092773 L580.2240002366012,376.1036393975479 M580.2240002366012,376.1036393975479 L565.9123911107569,374.18043032599036 M565.9123911107569,374.18043032599036 L551.044984533178,369.8671754645116 M551.044984533178,369.8671754645116 L535.8429289918968,363.2304358201081 M535.8429289918968,363.2304358201081 L520.5318555162975,354.370894116001 M520.5318555162975,354.370894116001 L505.33856116739173,343.42171516385 M505.33856116739173,343.42171516385 L490.4877431899738,330.5465138153333 M490.4877431899738,330.5465138153333 L476.19874349535974,315.936915791165 M476.19874349535974,315.936915791165 L462.6824350338479,299.8096933084086 M462.6824350338479,299.8096933084086 L462.69506287859275,303.6623938782106 M462.69506287859275,303.6623938782106 L455.73768702227324,294.50169040758675 M455.73768702227324,294.50169040758675 L449.0790584359265,285.00734923280595 M449.0790584359265,285.00734923280595 L442.74646711788535,275.2183793423209 M442.74646711788535,275.2183793423209 L442.6923264555308,260.23323374537534 M593.7663773862074,375.60542080092773 L553.6389235724986,398.751067800466 M462.6824350338479,299.8096933084086 L422.55557721492727,322.83679360438606 M459.7341387939588,361.9887372670421 L446.82162999673506,350.1864582050703 M446.82162999673506,350.1864582050703 L434.3816016596978,337.08587799616015 M434.3816016596978,337.08587799616015 L422.55557721492727,322.83679360438606 M516.4242602318901,394.83926074448726 L521.4168537616364,390.73147631067127 M521.4168537616364,390.73147631067127 L524.6069311413937,386.2518902132643 M524.6069311413937,386.2518902132643 L525.6105103165895,381.3840819759812 M525.6105103165895,381.3840819759812 L524.1768347750732,376.6546115958131 M524.1768347750732,376.6546115958131 L520.5294079024596,372.13898496106543 M520.5294079024596,372.13898496106543 L515.1904459243273,368.10943491268637 M515.1904459243273,368.10943491268637 L509.64668843269385,365.1178007541705 M509.64668843269385,365.1178007541705 L504.09357379402536,362.8223623737072 M504.09357379402536,362.8223623737072 L498.31391374621734,360.98675554459174 M498.31391374621734,360.98675554459174 L492.5261975246518,359.6348100511845 M492.5261975246518,359.6348100511845 L486.8668440058509,358.7592175965007 M486.8668440058509,358.7592175965007 L479.67905237986093,358.30100642238466 M479.67905237986093,358.30100642238466 L472.1835657244595,358.69409247156557 M472.1835657244595,358.69409247156557 L465.5880584100626,359.9401227907604 M465.5880584100626,359.9401227907604 L459.7341387939588,361.9887372670421 M459.5817206371893,316.23081659197584 L459.7341387939588,361.9887372670421 M527.6798381709829,423.73062862161686 L527.6470255080358,408.70771959186743 M414.02311857950565,276.65681237678575 L414.0845464314692,291.6461538261253 M414.0845464314692,291.6461538261253 L442.74646711788535,275.2183793423209 M356.6647363483156,324.5567079117761 L356.5886853855036,309.5589746475823 M376.637782804003,353.0534765385078 L369.672991302236,343.8750065605928 M369.672991302236,343.8750065605928 L363.00620146743574,334.36305681893555 M363.00620146743574,334.36305681893555 L356.6647363483156,324.5567079117761 M376.637782804003,353.0534765385078 L376.6195228563847,349.1975451909921 M507.7019892749518,425.2476422013259 L494.1718835210819,425.72651084275066 M494.1718835210819,425.72651084275066 L479.8696819751762,423.78080722075094 M479.8696819751762,423.78080722075094 L465.00868257351897,419.44225540799147 M465.00868257351897,419.44225540799147 L449.8099408266546,412.7777984130115 M449.8099408266546,412.7777984130115 L434.4990397052778,403.88853489830495 M434.4990397052778,403.88853489830495 L419.30277372784155,392.90807314730847 M419.30277372784155,392.90807314730847 L404.4458831506966,380.0004924430498 M404.4458831506966,380.0004924430498 L390.1477979295577,365.35789709188373 M390.1477979295577,365.35789709188373 L376.6195228563847,349.1975451909921 M507.7019892749518,425.2476422013259 L507.71172816945386,429.10852742356974 M428.7429120380856,416.66841365995344 L400.3912628307537,400.1989345412943 M400.3912628307537,400.1989345412943 L399.81978929262596,268.44273437955445 M428.3415624819987,312.65542443280737 L423.4195740589147,305.8129213150399 M423.4195740589147,305.8129213150399 L418.66378601760886,298.8047501346538 M418.66378601760886,298.8047501346538 L414.0845464314692,291.6461538261253 M428.7429120380856,416.66841365995344 L428.3415624819987,312.65542443280737 M385.3906540167692,308.092253123115 L385.3219227449018,293.09871578212244 M356.6647363483156,324.5567079117761 L385.3906540167692,308.092253123115 M371.7543538773446,416.66841365995344 L371.118675593343,284.8754715664305 M400.3912628307537,400.1989345412943 L371.7543538773446,416.66841365995344 M371.7543538773446,416.66841365995344 L400.105844254083,433.1562329558049 M400.105844254083,433.1562329558049 L399.6538226160915,329.11427362539484 M399.6538226160915,329.11427362539484 L394.72991052103197,322.2674826735614 M394.72991052103197,322.2674826735614 L389.9720701650965,315.2550584722389 M389.9720701650965,315.2550584722389 L385.3906540167692,308.092253123115 M422.57082869524214,326.69100186481324 L420.6499154385785,324.23271663457484 M420.6499154385785,324.23271663457484 L418.74954947548537,321.7477217318968 M418.74954947548537,321.7477217318968 L416.8703055551764,319.2367615716166 M416.8703055551764,319.2367615716166 L416.7577026067572,291.45369995274217 M422.55557721492727,322.83679360438606 L422.57082869524214,326.69100186481324 M400.105844254083,433.1562329558049 L428.7429120380856,416.66841365995344 M399.6538226160915,329.11427362539484 L411.1327580101603,322.52853116448534 M411.1327580101603,322.52853116448534 L411.017448316476,294.7439151660475 M416.8703055551764,319.2367615716166 L428.3415624819987,312.65542443280737 M416.83368068653255,329.98373841524716 L416.81805373347504,326.1293147694903 M453.99829913546307,365.2870418962632 L441.08538037735485,353.48285338104745 M441.08538037735485,353.48285338104745 L428.64478866449065,340.380338032469 M428.64478866449065,340.380338032469 L416.81805373347504,326.1293147694903 M453.8414248305311,319.5265638095444 L453.99829913546307,365.2870418962632 M416.83368068653255,329.98373841524716 L414.91263802387516,327.5251303137636 M414.91263802387516,327.5251303137636 L413.01213886907544,325.039813059786 M413.01213886907544,325.039813059786 L411.1327580101603,322.52853116448534 M510.68837803729195,398.14490141431503 L502.93265924901027,401.38193550575494 M502.93265924901027,401.38193550575494 L493.95230876709843,403.90937175100856 M493.95230876709843,403.90937175100856 L484.22219794053694,405.3713428306774 M484.22219794053694,405.3713428306774 L475.09438670944525,405.4802074194746 M475.09438670944525,405.4802074194746 L469.21843978363825,404.78864539677835 M469.21843978363825,404.78864539677835 L463.44324448430575,403.37398615662687 M463.44324448430575,403.37398615662687 L458.4007695971427,401.3481575551297 M458.4007695971427,401.3481575551297 L453.97669009581114,398.6869687109187 M453.97669009581114,398.6869687109187 L450.3908236750524,395.5391358963156 M450.3908236750524,395.5391358963156 L447.71195858881595,392.0679406378935 M447.71195858881595,392.0679406378935 L445.94029454163115,388.4617583596238 M445.94029454163115,388.4617583596238 L444.8542264256208,383.6892861949334 M444.8542264256208,383.6892861949334 L445.11302322222764,378.5513636904931 M445.11302322222764,378.5513636904931 L446.6926580536693,373.8232304567008 M446.6926580536693,373.8232304567008 L449.3945628096021,369.61448071845786 M449.3945628096021,369.61448071845786 L451.5265740320126,367.3362503566504 M451.5265740320126,367.3362503566504 L453.99829913546307,365.2870418962632 M547.9013017161158,402.0605469097363 L507.7019892749518,425.2476422013259 M416.81805373347504,326.1293147694903 L376.6195228563847,349.1975451909921 M462.69506287859275,303.6623938782106 L422.57082869524214,326.69100186481324 M416.83368068653255,329.98373841524716 L376.637782804003,353.0534765385078" stroke="black"  stroke-width="4"  fill="red"/>
<path d="M614.1333711919176,293.5922563226749 L585.7181877813742,309.9432667457479 M585.578359690748,193.35331014638157 L585.7181877813742,309.9432667457479 M585.578359690748,193.35331014638157 L614.0495673895277,177.03484410656804 M614.1333711919176,293.5922563226749 L614.0495673895277,177.03484410656804 M784.8144578772774,391.9710629882694 L614.1333711919176,293.5922563226749 M756.3993801614336,408.431383491567 L784.8144578772774,391.9710629882694 M756.3993801614336,408.431383491567 L742.132438631148,400.1989345412943 M742.132438631148,400.1989345412943 L713.6857028417904,416.66841365995344 M713.6857028417904,416.66841365995344 L727.9526686268132,424.9100288715731 M699.4742704182472,441.4070297462937 L727.9526686268132,424.9100288715731 M528.7931825475964,342.6997455783152 L699.4742704182472,441.4070297462937 M557.2714757345917,326.31241976013615 L528.7931825475964,342.6997455783152 M557.2714757345917,326.31241976013615 L571.451496222516,334.5038091778524 M571.451496222516,334.5038091778524 L599.8982323045373,318.1255735423188 M599.8982323045373,318.1255735423188 L585.7181877813742,309.9432667457479 M628.2345435096066,383.74776501587434 L635.8707265230482,387.20522787011504 M635.8707265230482,387.20522787011504 L644.7196624431815,389.5065402421666 M644.7196624431815,389.5065402421666 L654.2662213558222,390.51740054381077 M654.2662213558222,390.51740054381077 L663.9543828554984,390.17879332900026 M663.9543828554984,390.17879332900026 L673.2198217984435,388.5104897411151 M673.2198217984435,388.5104897411151 L681.5229966093168,385.6098685310738 M681.5229966093168,385.6098685310738 L688.3807577485386,381.6461662886515 M688.3807577485386,381.6461662886515 L693.3945577123804,376.85048687241357 M693.3945577123804,376.85048687241357 L696.2736143196728,371.50219796969805 M696.2736143196728,371.50219796969805 L696.8516766597666,365.9125475322608 M696.8516766597666,365.9125475322608 L695.0964300222465,360.4064738364294 M695.0964300222465,360.4064738364294 L691.111095596919,355.3037030993733 M691.111095596919,355.3037030993733 L685.1281382998309,350.90023274857253 M685.1281382998309,350.90023274857253 L677.4955757361511,347.4512504589736 M677.4955757361511,347.4512504589736 L668.6566717795481,345.1564758555403 M668.6566717795481,345.1564758555403 L659.1242581357445,344.1487128072347 M659.1242581357445,344.1487128072347 L649.4511147013177,344.4862672082556 M649.4511147013177,344.4862672082556 L640.1981261618357,346.14960910935633 M640.1981261618357,346.14960910935633 L631.9019818496163,349.0424964180022 M631.9019818496163,349.0424964180022 L625.0442207058609,352.9974642918279 M625.0442207058609,352.9974642918279 L620.0233902382145,357.7854098115271 M620.0233902382145,357.7854098115271 L617.1318832306741,363.12873702966994 M617.1318832306741,363.12873702966994 L616.5388028341347,368.71733465615443 M616.5388028341347,368.71733465615443 L618.2799042096046,374.2265055995921 M618.2799042096046,374.2265055995921 L622.255206670309,379.33581410353366 M622.255206670309,379.33581410353366 L628.2345435096066,383.74776501587434 M599.7985621912613,214.28640287799567 L594.8880900095955,207.46951575228059 M594.8880900095955,207.46951575228059 L590.1445819180851,200.48675545500362 M590.1445819180851,200.48675545500362 L585.578359690748,193.35331014638157 M599.8982323045373,318.1255735423188 L599.7985621912613,214.28640287799567 M730.8878937459455,302.78892016046774 L742.2827771990219,296.21491540869596 M756.5964498426414,291.6461538261253 L751.9982761900995,293.52662333989326 M751.9982761900995,293.52662333989326 L747.223524760141,295.0505909449169 M747.223524760141,295.0505909449169 L742.2827771990219,296.21491540869596 M756.5964498426414,291.6461538261253 L785.067551218948,275.2183793423209 M785.067551218948,275.2183793423209 L771.6041796750577,279.6188755253565 M771.6041796750577,279.6188755253565 L756.887124590231,281.1297894297849 M756.887124590231,281.1297894297849 L741.1759174647068,279.72855642758356 M741.1759174647068,279.72855642758356 L724.7467319231257,275.44348013563246 M724.7467319231257,275.44348013563246 L707.8875366012,268.3529303571011 M707.8875366012,268.3529303571011 L690.8930977310906,258.58379799731915 M690.8930977310906,258.58379799731915 L674.0598968990384,246.30908453029525 M674.0598968990384,246.30908453029525 L657.681089418066,231.7447808846282 M657.681089418066,231.7447808846282 L642.0415297011873,215.14606689882163 M642.0415297011873,215.14606689882163 L627.412981947291,196.80284770920508 M627.412981947291,196.80284770920508 L614.0495673895277,177.03484410656804 M588.4036680300092,220.82392885397635 L599.7985621912613,214.28640287799567 M631.21757805642,266.75938387738194 L616.228335457028,253.0699746646825 M616.228335457028,253.0699746646825 L601.8867513930039,237.68236911338158 M601.8867513930039,237.68236911338158 L588.4036680300092,220.82392885397635 M631.21757805642,266.75938387738194 L638.9307004593725,264.26061892626143 M638.9307004593725,264.26061892626143 L647.868562851919,263.1267136967611 M647.868562851919,263.1267136967611 L657.5529191163453,263.44163500103485 M657.5529191163453,263.44163500103485 L666.6381050284454,264.95881035925447 M666.6381050284454,264.95881035925447 L672.4941408254202,266.5464897398321 M672.4941408254202,266.5464897398321 L678.2537396776598,268.6238671616051 M678.2537396776598,268.6238671616051 L681.8406322202493,270.22641547309115 M681.8406322202493,270.22641547309115 L685.1660757982661,271.9829133121225 M685.1660757982661,271.9829133121225 L690.7665940896818,275.83728426559395 M690.7665940896818,275.83728426559395 L694.5502455918127,279.8013542101553 M694.5502455918127,279.8013542101553 L696.3053641296895,282.9812833304735 M696.3053641296895,282.9812833304735 L696.9471813078983,285.74104776790205 M696.9471813078983,285.74104776790205 L696.5975021694773,289.24105629922326 M696.5975021694773,289.24105629922326 L694.7996781580331,292.93947299859354 M694.7996781580331,292.93947299859354 L691.8663034423303,296.27748124720296 M691.8663034423303,296.27748124720296 L687.9050782552237,299.392842380627 M730.8878937459455,302.78892016046774 L717.3358449973564,304.11576677838633 M717.3358449973564,304.11576677838633 L702.9368422799607,302.9771374012013 M702.9368422799607,302.9771374012013 L687.9050782552237,299.392842380627 M784.8144578772774,391.9710629882694 L785.067551218948,275.2183793423209 M756.3993801614336,408.431383491567 L756.5964498426414,291.6461538261253 M742.132438631148,400.1989345412943 L742.2827771990219,296.21491540869596 M713.6857028417904,416.66841365995344 L713.7860402308122,312.6554244328075 M713.7860402308122,312.6554244328075 L725.1885467771442,306.0770217201884 M725.1596108748222,331.0819532218745 L725.1885467771442,306.0770217201884 M725.1596108748222,331.0819532218745 L725.7293622312786,330.752970422407 M725.6448590104095,403.1740562219956 L725.7293622312786,330.752970422407 M725.6448590104095,403.1740562219956 L730.1968422353291,400.5392317963142 M730.1968422353291,400.5392317963142 L730.2869163975965,328.121371723485 M730.2869163975965,328.121371723485 L730.8565535041928,327.7924548935645 M730.8565535041928,327.7924548935645 L730.8878937459455,302.78892016046774 M728.0935895927022,308.092253123115 L727.9526686268132,424.9100288715731 M728.0935895927022,308.092253123115 L723.4975804313447,309.9710428537002 M723.4975804313447,309.9710428537002 L718.7248715533547,311.4931456009328 M718.7248715533547,311.4931456009328 L713.7860402308122,312.6554244328075 M699.5589173000114,324.5567079117762 L728.0935895927022,308.092253123115 M699.4742704182472,441.4070297462937 L699.5589173000114,324.5567079117762 M528.7931825475964,342.6997455783152 L528.5409322759141,226.04469900893383 M699.5589173000114,324.5567079117762 L686.1129601244709,328.94152039136657 M686.1129601244709,328.94152039136657 L671.4102081192134,330.4325078798786 M671.4102081192134,330.4325078798786 L655.7099478130463,329.0074672880732 M655.7099478130463,329.0074672880732 L639.2881656990023,324.6951299354293 M639.2881656990023,324.6951299354293 L622.4327039712239,317.57435130575357 M622.4327039712239,317.57435130575357 L605.4382651390498,307.7725570278912 M605.4382651390498,307.7725570278912 L588.6013307512869,295.4633226801314 M588.6013307512869,295.4633226801314 L572.2151197752569,280.86324261991837 M572.2151197752569,280.86324261991837 L556.5646130150749,264.22811906492933 M556.5646130150749,264.22811906492933 L541.9217617777211,245.84848797383688 M541.9217617777211,245.84848797383688 L528.5409322759141,226.04469900893383 M528.5409322759141,226.04469900893383 L557.0754989245909,209.68991835671764 M557.2714757345917,326.31241976013615 L557.0754989245909,209.68991835671764 M571.451496222516,334.5038091778524 L571.3018249283249,230.6356692643954 M571.3018249283249,230.6356692643954 L566.3894364407263,223.81452597399385 M566.3894364407263,223.81452597399385 L561.6438857232198,216.82754325073665 M561.6438857232198,216.82754325073665 L557.0754989245909,209.68991835671764 M588.432436972005,245.7925451708037 L588.4036680300092,220.82392885397635 M588.432436972005,245.7925451708037 L587.862799700632,246.11963741526813 M587.9468194739077,318.4366943916992 L587.862799700632,246.11963741526813 M587.9468194739077,318.4366943916992 L583.3948362002391,321.05691986258654 M583.3948362002391,321.05691986258654 L583.3052454853259,248.7366372368557 M583.3052454853259,248.7366372368557 L582.7354942814345,249.063794902677 M582.7354942814345,249.063794902677 L582.7043209999047,224.09378188886768 M571.3018249283249,230.6356692643954 L582.7043209999047,224.09378188886768 M628.2345435096066,383.74776501587434 L628.2976884927934,514.8827776438627 M628.2976884927934,514.8827776438627 L635.9169358344657,518.3478632762262 M635.9169358344657,518.3478632762262 L644.7462399450333,520.6542484285426 M644.7462399450333,520.6542484285426 L654.2716156507599,521.6673367167352 M654.2716156507599,521.6673367167352 L663.9382790007633,521.3279832118367 M663.9382790007633,521.3279832118367 L673.1831599423602,519.6560024322223 M673.1831599423602,519.6560024322223 L681.4679163845226,516.7489868211046 M681.4679163845226,516.7489868211046 L688.3104718540417,512.7765445770199 M688.3104718540417,512.7765445770199 L693.3131625378742,507.97028748382144 M693.3131625378742,507.97028748382144 L696.1858492134886,502.61019795294686 M696.1858492134886,502.61019795294686 L696.7626464348252,497.008209744138 M696.7626464348252,497.008209744138 L695.0113073351868,491.48997815959143 M695.0113073351868,491.48997815959143 L691.0348206529511,486.3759359925486 M691.0348206529511,486.3759359925486 L685.0651333278227,481.9627357387844 M685.0651333278227,481.9627357387844 L677.449490398515,478.5061305461372 M677.449490398515,478.5061305461372 L668.6301738131443,476.2062830661255 M668.6301738131443,476.2062830661255 L659.1188807172991,475.196291985641 M659.1188807172991,475.196291985641 L649.4671689073812,475.5345926922607 M649.4671689073812,475.5345926922607 L640.2346832180024,477.20161185818773 M640.2346832180024,477.20161185818773 L631.9569261316826,480.100893681841 M631.9569261316826,480.100893681841 L625.11437065767,484.0646016859874 M625.11437065767,484.0646016859874 L620.1046806128899,488.8631249965587 M620.1046806128899,488.8631249965587 L617.219598688244,494.21825291593603 M617.219598688244,494.21825291593603 L616.6278499355478,499.81918832929756 M616.6278499355478,499.81918832929756 L618.3651064320316,505.3405171158351 M618.3651064320316,505.3405171158351 L622.3316055879869,510.4610969534727 M622.3316055879869,510.4610969534727 L628.2976884927934,514.8827776438627 M631.219155795023,270.42676559812645 L588.432436972005,245.7925451708037 M631.21757805642,266.75938387738194 L631.219155795023,270.42676559812645 M685.1660757982661,271.9829133121225 L677.404530679411,268.4974001227128 M677.404530679411,268.4974001227128 L668.4076290376638,266.19992043441965 M668.4076290376638,266.19992043441965 L658.7122671440166,265.22723121221657 M658.7122671440166,265.22723121221657 L648.8967283581528,265.6372123959099 M648.8967283581528,265.6372123959099 L639.546409201771,267.40546897319496 M639.546409201771,267.40546897319496 L631.219155795023,270.42676559812645 M687.9050782552237,299.392842380627 L687.903143665963,303.0622630217154 M687.903143665963,303.0622630217154 L693.1538097204623,298.2614527541423 M693.1538097204623,298.2614527541423 L696.2230837717461,292.8712679732814 M696.2230837717461,292.8712679732814 L696.928592118911,287.2143782043944 M696.928592118911,287.2143782043944 L695.229499951757,281.6290399766485 M695.229499951757,281.6290399766485 L691.2286418107115,276.4488600392959 M691.2286418107115,276.4488600392959 L685.1660757982661,271.9829133121225 M730.8565535041928,327.7924548935645 L687.903143665963,303.0622630217154 M625.5202731193972,270.0359055578974 L610.5305454939808,256.3442947118241 M610.5305454939808,256.3442947118241 L596.1882774344912,240.954455365846 M596.1882774344912,240.954455365846 L582.7043209999047,224.09378188886768 M628.1965215554646,304.7864733199165 L622.599109081082,300.56536223419573 M622.599109081082,300.56536223419573 L618.8237027894013,295.6403637629171 M618.8237027894013,295.6403637629171 L617.077600469381,291.4097436470208 M617.077600469381,291.4097436470208 L616.4445306207933,287.6288925019245 M616.4445306207933,287.6288925019245 L616.8054916826613,282.80880206247565 M616.8054916826613,282.80880206247565 L618.6141170282685,277.84348365266726 M618.6141170282685,277.84348365266726 L621.5550001872186,273.62417994589015 M621.5550001872186,273.62417994589015 L625.5202731193972,270.0359055578974 M682.207773322027,302.6766268831529 L674.488693017853,305.887411789983 M674.488693017853,305.887411789983 L665.5392906148734,308.38645017384096 M665.5392906148734,308.38645017384096 L655.8400229351037,309.82101208151204 M655.8400229351037,309.82101208151204 L646.7410154385077,309.91240770369376 M646.7410154385077,309.91240770369376 L640.8772698912338,309.2160378599754 M640.8772698912338,309.2160378599754 L635.1118910742478,307.8035132003437 M635.1118910742478,307.8035132003437 L631.5227424193196,306.45740464423534 M631.5227424193196,306.45740464423534 L628.1965215554646,304.7864733199165 M725.1885467771442,306.0770217201884 L711.6373710714216,307.4026413465227 M711.6373710714216,307.4026413465227 L697.2390523306876,306.2625656181508 M697.2390523306876,306.2625656181508 L682.207773322027,302.6766268831529 M682.2061917343717,306.346252445368 L725.1596108748222,331.0819532218745 M682.207773322027,302.6766268831529 L682.2061917343717,306.346252445368 M725.7293622312786,330.752970422407 L583.3052454853259,248.7366372368557 M682.2061917343717,306.346252445368 L673.8723115154062,309.37554119689435 M673.8723115154062,309.37554119689435 L664.5096111782882,311.1490521839777 M664.5096111782882,311.1490521839777 L654.6788530167721,311.5603124885758 M654.6788530167721,311.5603124885758 L644.9690181926944,310.5846258244685 M644.9690181926944,310.5846258244685 L635.961798902862,308.280578122164 M635.961798902862,308.280578122164 L628.1965215554646,304.7864733199165 M628.1965215554646,304.7864733199165 L622.137687779709,300.3119349858686 M622.137687779709,300.3119349858686 L618.1471472876722,295.12518703702136 M618.1471472876722,295.12518703702136 L616.4625280438295,289.53685136812413 M616.4625280438295,289.53685136812413 L617.1832557577968,283.8812407190971 M617.1832557577968,283.8812407190971 L620.2649109870831,278.4963103474477 M620.2649109870831,278.4963103474477 L625.5222038596064,273.7034921960703 M582.7354942814345,249.063794902677 L625.5222038596064,273.7034921960703 M583.3948362002391,321.05691986258654 L725.6448590104095,403.1740562219956 M730.1968422353291,400.5392317963142 L587.9468194739077,318.4366943916992 M730.2869163975965,328.121371723485 L587.862799700632,246.11963741526813 M625.5202731193972,270.0359055578974 L625.5222038596064,273.7034921960703" stroke="black"  stroke-width="4"  fill="red"/>
<path d="M742.132438631148,400.1989345412943 L713.6857028417904,416.66841365995344 M742.132438631148,400.1989345412943 L742.2827771990219,296.21491540869596 M730.8878937459455,302.78892016046774 L742.2827771990219,296.21491540869596 M730.8878937459455,302.78892016046774 L730.922708195382,275.0136304045475 M730.922708195382,275.0136304045475 L725.2206903584342,278.3001775967069 M725.1885467771442,306.0770217201884 L725.2206903584342,278.3001775967069 M713.7860402308122,312.6554244328075 L725.1885467771442,306.0770217201884 M713.6857028417904,416.66841365995344 L713.7860402308122,312.6554244328075 M713.6857028417904,416.66841365995344 L742.227578156705,433.1562329558049 M742.227578156705,433.1562329558049 L770.6742610025315,416.66841365995344 M770.6742610025315,416.66841365995344 L742.132438631148,400.1989345412943 M756.5964498426414,291.6461538261253 L751.9982761900995,293.52662333989326 M751.9982761900995,293.52662333989326 L747.223524760141,295.0505909449169 M747.223524760141,295.0505909449169 L742.2827771990219,296.21491540869596 M756.5964498426414,291.6461538261253 L756.6217436640381,276.65681237678575 M770.928532316132,284.8754715664305 L756.6217436640381,276.65681237678575 M770.6742610025315,416.66841365995344 L770.928532316132,284.8754715664305 M742.227578156705,433.1562329558049 L742.418494302856,301.3265488617741 M728.1116767695094,293.09871578212244 L742.418494302856,301.3265488617741 M728.1116767695094,293.09871578212244 L728.0935895927022,308.092253123115 M728.0935895927022,308.092253123115 L723.4975804313447,309.9710428537002 M723.4975804313447,309.9710428537002 L718.7248715533547,311.4931456009328 M718.7248715533547,311.4931456009328 L713.7860402308122,312.6554244328075 M730.8878937459455,302.78892016046774 L717.3358449973564,304.11576677838633 M717.3358449973564,304.11576677838633 L702.9368422799607,302.9771374012013 M702.9368422799607,302.9771374012013 L687.9050782552237,299.392842380627 M687.9050782552237,299.392842380627 L692.8565702180068,295.30274136075764 M692.8565702180068,295.30274136075764 L696.0043894921625,290.83598095834236 M696.0043894921625,290.83598095834236 L696.9645728748567,285.97832152227403 M696.9645728748567,285.97832152227403 L695.4914496913061,281.25879888839086 M695.4914496913061,281.25879888839086 L691.810667313169,276.7573313763361 M691.810667313169,276.7573313763361 L686.4491943785827,272.7479732061839 M686.4491943785827,272.7479732061839 L680.9014639970185,269.78046005164 M680.9014639970185,269.78046005164 L675.3580012443945,267.510149564316 M675.3580012443945,267.510149564316 L669.5945395318804,265.6985935750117 M669.5945395318804,265.6985935750117 L663.8270753124216,264.36820099819806 M663.8270753124216,264.36820099819806 L658.1909368819017,263.510943386977 M658.1909368819017,263.510943386977 L651.0371449441416,263.0711649717415 M651.0371449441416,263.0711649717415 L643.5825609666973,263.4756725311721 M643.5825609666973,263.4756725311721 L637.0296727553485,264.721883158316 M637.0296727553485,264.721883158316 L631.21757805642,266.75938387738194 M631.21757805642,266.75938387738194 L616.228335457028,253.0699746646825 M616.228335457028,253.0699746646825 L601.8867513930039,237.68236911338158 M601.8867513930039,237.68236911338158 L588.4036680300092,220.82392885397635 M588.4036680300092,220.82392885397635 L599.7985621912613,214.28640287799567 M599.7985621912613,214.28640287799567 L594.8880900095955,207.46951575228059 M594.8880900095955,207.46951575228059 L590.1445819180851,200.48675545500362 M590.1445819180851,200.48675545500362 L585.578359690748,193.35331014638157 M585.578359690748,193.35331014638157 L614.0495673895277,177.03484410656804 M785.067551218948,275.2183793423209 L771.6041796750577,279.6188755253565 M771.6041796750577,279.6188755253565 L756.887124590231,281.1297894297849 M756.887124590231,281.1297894297849 L741.1759174647068,279.72855642758356 M741.1759174647068,279.72855642758356 L724.7467319231257,275.44348013563246 M724.7467319231257,275.44348013563246 L707.8875366012,268.3529303571011 M707.8875366012,268.3529303571011 L690.8930977310906,258.58379799731915 M690.8930977310906,258.58379799731915 L674.0598968990384,246.30908453029525 M674.0598968990384,246.30908453029525 L657.681089418066,231.7447808846282 M657.681089418066,231.7447808846282 L642.0415297011873,215.14606689882163 M642.0415297011873,215.14606689882163 L627.412981947291,196.80284770920508 M627.412981947291,196.80284770920508 L614.0495673895277,177.03484410656804 M756.5964498426414,291.6461538261253 L785.067551218948,275.2183793423209 M699.5589173000114,324.5567079117762 L728.0935895927022,308.092253123115 M725.1885467771442,306.0770217201884 L723.3030775973593,306.4186695946263 M723.3030775973593,306.4186695946263 L721.3965397214529,306.7096841665616 M721.3965397214529,306.7096841665616 L719.469519128967,306.9499951795413 M719.469519128967,306.9499951795413 L679.5412841090987,329.98373841524716 M699.5589173000114,324.5567079117762 L693.2032384990689,327.0435929718797 M693.2032384990689,327.0435929718797 L686.5214023846827,328.8549557325079 M686.5214023846827,328.8549557325079 L679.5412841090987,329.98373841524716 M687.9309579709898,250.30564586262847 L687.9050782552237,299.392842380627 M687.9309579709898,250.30564586262847 L730.922708195382,275.0136304045475 M725.2206903584342,278.3001775967069 L682.2289308069123,253.58668418841415 M682.2289308069123,253.58668418841415 L682.2092304018729,299.2958863780812 M719.473605518862,303.09707922619145 L707.6137698864691,303.6889259220775 M707.6137698864691,303.6889259220775 L695.1444985108873,302.4163625512285 M695.1444985108873,302.4163625512285 L682.2092304018729,299.2958863780812 M719.473605518862,303.09707922619145 L719.469519128967,306.9499951795413 M742.418494302856,301.3265488617741 L770.928532316132,284.8754715664305 M756.6217436640381,276.65681237678575 L785.1000356163607,260.23323374537534 M785.1000356163607,260.23323374537534 L614.0388112952463,162.07487237208582 M699.5697817232704,309.5589746475824 L728.1116767695094,293.09871578212244 M614.0388112952463,162.07487237208582 L585.5604129396967,178.38914295505967 M528.5085562062701,211.07214065702823 L699.5697817232704,309.5589746475824 M585.5604129396967,178.38914295505967 L571.3567788353398,170.22974179265847 M557.0503455284278,194.72155562375264 L528.5085562062701,211.07214065702823 M571.3567788353398,170.22974179265847 L542.846739995278,186.5530796378401 M542.846739995278,186.5530796378401 L557.0503455284278,194.72155562375264 M588.3717099997297,193.08749710060616 L631.196472084644,217.699511128476 M582.6696921013637,196.35579587048923 L588.3717099997297,193.08749710060616 M625.4944449167276,220.97328669791 L582.6696921013637,196.35579587048923 M682.2289308069123,253.58668418841415 L673.8876232399666,256.6132513015836 M673.8876232399666,256.6132513015836 L664.5165764400003,258.3851691501528 M664.5165764400003,258.3851691501528 L654.6770535689575,258.7960600482293 M654.6770535689575,258.7960600482293 L644.9585620958396,257.82124979220197 M644.9585620958396,257.82124979220197 L635.9433139522841,255.5192719230463 M635.9433139522841,255.5192719230463 L628.1711171003108,252.02830664915393 M628.1711171003108,252.02830664915393 L622.1068873693964,247.5577898604838 M622.1068873693964,247.5577898604838 L618.1127964365744,242.3757050767665 M618.1127964365744,242.3757050767665 L616.4266828743208,236.7923954397241 M616.4266828743208,236.7923954397241 L617.1480594457155,231.14187324797416 M617.1480594457155,231.14187324797416 L620.2324655391225,225.76178959233255 M620.2324655391225,225.76178959233255 L625.4944449167276,220.97328669791 M631.196472084644,217.699511128476 L639.5311410268765,214.6809360655837 M639.5311410268765,214.6809360655837 L648.8897845762608,212.9142725766399 M648.8897845762608,212.9142725766399 L658.7140609426287,212.50466078725438 M658.7140609426287,212.50466078725438 L668.4180536868569,213.4764736299988 M668.4180536868569,213.4764736299988 L677.4229657907963,215.7718835478602 M677.4229657907963,215.7718835478602 L685.1914237614201,219.25425729095878 M685.1914237614201,219.25425729095878 L691.2593923818605,223.71618255480286 M691.2593923818605,223.71618255480286 L695.2638193552253,228.89169938975192 M695.2638193552253,228.89169938975192 L696.964431639224,234.4720116142704 M696.964431639224,234.4720116142704 L696.258301563623,240.12381291366376 M696.258301563623,240.12381291366376 L693.1862987180547,245.5091509283352 M693.1862987180547,245.5091509283352 L687.9309579709898,250.30564586262847 M785.067551218948,275.2183793423209 L785.1000356163607,260.23323374537534 M699.5589173000114,324.5567079117762 L699.5697817232704,309.5589746475824 M631.196472084644,217.699511128476 L631.21757805642,266.75938387738194 M588.4036680300092,220.82392885397635 L588.3717099997297,193.08749710060616 M571.451496222516,334.5038091778524 L599.8982323045373,318.1255735423188 M571.451496222516,334.5038091778524 L571.3018249283249,230.6356692643954 M571.3018249283249,230.6356692643954 L582.7043209999047,224.09378188886768 M582.7043209999047,224.09378188886768 L582.6696921013637,196.35579587048923 M599.8982323045373,318.1255735423188 L599.7985621912613,214.28640287799567 M599.8982323045373,318.1255735423188 L571.5460035933127,301.7654955959599 M571.5460035933127,301.7654955959599 L571.3567788353398,170.22974179265847 M585.5604129396967,178.38914295505967 L585.578359690748,193.35331014638157 M614.0495673895277,177.03484410656804 L614.0388112952463,162.07487237208582 M679.5427723903422,326.1293147694903 L679.5412841090987,329.98373841524716 M719.473605518862,303.09707922619145 L679.5427723903422,326.1293147694903 M528.5409322759141,226.04469900893383 L528.5085562062701,211.07214065702823 M548.4651291784892,254.4361525802567 L541.5151582986391,245.29314824402678 M541.5151582986391,245.29314824402678 L534.8646736587561,235.81635117421723 M534.8646736587561,235.81635117421723 L528.5409322759141,226.04469900893383 M548.4651291784892,254.4361525802567 L548.4580959744956,250.58668271666704 M679.5427723903422,326.1293147694903 L665.988281606348,326.6467512762403 M665.988281606348,326.6467512762403 L651.6674077484121,324.74589730655924 M651.6674077484121,324.74589730655924 L636.7937198377838,320.45779464557137 M636.7937198377838,320.45779464557137 L621.5884575003175,313.8486244669221 M621.5884575003175,313.8486244669221 L606.2772982617827,305.01865575712714 M606.2772982617827,305.01865575712714 L591.0870404619615,294.1006120602177 M591.0870404619615,294.1006120602177 L576.2423373859147,281.2576459705582 M576.2423373859147,281.2576459705582 L561.9624422813358,266.6809067361448 M561.9624422813358,266.6809067361448 L548.4580959744956,250.58668271666704 M625.4944449167276,220.97328669791 L625.5184943736754,266.65704391137206 M682.2092304018729,299.2958863780812 L674.4949912109067,302.5131331164361 M674.4949912109067,302.5131331164361 L665.5532066661617,305.02718987555755 M665.5532066661617,305.02718987555755 L655.8562770720359,306.4838874968034 M655.8562770720359,306.4838874968034 L646.7524125428843,306.59615956981884 M646.7524125428843,306.59615956981884 L640.8881220883366,305.91149973582344 M640.8881220883366,305.91149973582344 L635.121048570197,304.50799850944605 M635.121048570197,304.50799850944605 L630.0822819518945,302.4964994831823 M630.0822819518945,302.4964994831823 L625.6577373915761,299.8529641907432 M625.6577373915761,299.8529641907432 L622.0673125116464,296.7251348915089 M622.0673125116464,296.7251348915089 L619.3802572302753,293.27537368985884 M619.3802572302753,293.27537368985884 L617.5974181977449,289.6910537515245 M617.5974181977449,289.6910537515245 L616.4929680158241,284.9471371515256 M616.4929680158241,284.9471371515256 L616.7274250749125,279.8398568731582 M616.7274250749125,279.8398568731582 L618.279892924971,275.14009861819784 M618.279892924971,275.14009861819784 L620.9525778946643,270.95703467569274 M620.9525778946643,270.95703467569274 L623.0659298309541,268.693108048694 M623.0659298309541,268.693108048694 L625.5184943736754,266.65704391137206 M625.5184943736754,266.65704391137206 L612.6179341769622,254.90989711399504 M612.6179341769622,254.90989711399504 L600.1942687281569,241.8652030975337 M600.1942687281569,241.8652030975337 L588.3888383410474,227.67212475359963 M588.3888383410474,227.67212475359963 L548.4580959744956,250.58668271666704 M557.0754989245909,209.68991835671764 L557.0503455284278,194.72155562375264 M528.5409322759141,226.04469900893383 L557.0754989245909,209.68991835671764 M543.0993199280251,318.1255735423188 L542.846739995278,186.5530796378401 M571.5460035933127,301.7654955959599 L543.0993199280251,318.1255735423188 M543.0993199280251,318.1255735423188 L571.451496222516,334.5038091778524 M571.3018249283249,230.6356692643954 L566.3894364407263,223.81452597399385 M566.3894364407263,223.81452597399385 L561.6438857232198,216.82754325073665 M561.6438857232198,216.82754325073665 L557.0754989245909,209.68991835671764 M588.3932734540772,231.52008699372493 L588.3888383410474,227.67212475359963 M588.3932734540772,231.52008699372493 L586.4761086339046,229.07112911138842 M586.4761086339046,229.07112911138842 L584.5795999408494,226.59544686585332 M584.5795999408494,226.59544686585332 L582.7043209999047,224.09378188886768 M588.3932734540772,231.52008699372493 L548.4651291784892,254.4361525802567" stroke="black"  stroke-width="4"  fill="red"/>
<path d="M583.3948362002391,321.05691986258654 L583.2726127225974,222.3945031699227 M583.3948362002391,321.05691986258654 L725.6448590104095,403.1740562219956 M583.2726127225974,222.3945031699227 L725.7601420542883,304.3739971697631 M725.6448590104095,403.1740562219956 L725.7601420542883,304.3739971697631 M720.0435945574493,302.76830767886145 L720.0394711104705,306.62120209384386 M720.0394711104705,306.62120209384386 L706.428135838543,306.90661378103795 M706.428135838543,306.90661378103795 L692.0903269978157,304.84199299517815 M692.0903269978157,304.84199299517815 L677.2294004014201,300.45919238784927 M677.2294004014201,300.45919238784927 L662.055612346159,293.82254188565264 M662.055612346159,293.82254188565264 L646.7831686373772,285.02783297149483 M646.7831686373772,285.02783297149483 L631.6272485569441,274.20084825934254 M631.6272485569441,274.20084825934254 L616.8010475151331,261.49552740584835 M616.8010475151331,261.49552740584835 L602.5128573958386,247.091787873515 M602.5128573958386,247.091787873515 L588.9632252942071,231.19297302470517 M588.9632252942071,231.19297302470517 L588.9588272382338,227.34503232183408 M720.0435945574493,302.76830767886145 L706.4834246006303,303.2947949077113 M706.4834246006303,303.2947949077113 L692.1582148794223,301.4044740221469 M692.1582148794223,301.4044740221469 L677.2815973529407,297.1282265581741 M677.2815973529407,297.1282265581741 L662.0748541489644,290.5320546532858 M662.0748541489644,290.5320546532858 L646.7636842610332,281.7160322223085 M646.7636842610332,281.7160322223085 L631.5748861971429,270.81267470696247 M631.5748861971429,270.81267470696247 L616.7330921070368,257.9849166538699 M616.7330921070368,257.9849166538699 L602.4575130572234,243.42368251359335 M602.4575130572234,243.42368251359335 L588.9588272382338,227.34503232183408 M587.9468194739077,318.4366943916992 L587.8321961171841,219.7786821664037 M587.9468194739077,318.4366943916992 L583.3948362002391,321.05691986258654 M587.8321961171841,219.7786821664037 L583.2726127225974,222.3945031699227 M725.6448590104095,403.1740562219956 L730.1968422353291,400.5392317963142 M730.1968422353291,400.5392317963142 L587.9468194739077,318.4366943916992 M730.1968422353291,400.5392317963142 L730.3197253997996,301.74357734979884 M725.7601420542883,304.3739971697631 L730.3197253997996,301.74357734979884 M720.0394711104705,306.62120209384386 L146.00174742138864,637.7712649123998 M145.96812907813916,633.8969194459096 L146.00174742138864,637.7712649123998 M720.0435945574493,302.76830767886145 L145.96812907813916,633.8969194459096 M588.9632252942071,231.19297302470517 L14.942100968189607,560.6424370999061 M146.00174742138864,637.7712649123998 L132.4712789944228,637.9251276279142 M132.4712789944228,637.9251276279142 L118.19561812802033,635.7087647035019 M118.19561812802033,635.7087647035019 L103.3772625316135,631.1562240106664 M103.3772625316135,631.1562240106664 L88.22588113511517,624.3342737042431 M88.22588113511517,624.3342737042431 L72.95537071111431,615.3413503373554 M72.95537071111431,615.3413503373554 L57.78088353594359,604.3060499468538 M57.78088353594359,604.3060499468538 L42.91587041218679,591.3852541541646 M42.91587041218679,591.3852541541646 L28.56915805814606,576.7619101223497 M28.56915805814606,576.7619101223497 L14.942100968189607,560.6424370999061 M588.9588272382338,227.34503232183408 L14.899964383639258,556.7730446122575 M14.942100968189607,560.6424370999061 L14.899964383639258,556.7730446122575 M14.899964383639258,556.7730446122575 L28.478144798792187,573.0728623010102 M28.478144798792187,573.0728623010102 L42.813873461626144,587.8544564333397 M42.813873461626144,587.8544564333397 L57.69559939103442,600.8985223681177 M57.69559939103442,600.8985223681177 L72.9035326156577,612.0109386551444 M72.9035326156577,612.0109386551444 L88.21276409806325,621.0256671669179 M88.21276409806325,621.0256671669179 L103.39652379858632,627.8072277682318 M103.39652379858632,627.8072277682318 L118.22944613924597,632.2527646704809 M118.22944613924597,632.2527646704809 L132.49088319514658,634.2937195109532 M132.49088319514658,634.2937195109532 L145.96812907813916,633.8969194459096 M730.3197253997996,301.74357734979884 L587.8321961171841,219.7786821664037" stroke="black"  stroke-width="4"  fill="red"/></svg>